<svg version="1.1" viewBox="0.000000 0.000000 96.000000 96.000000" xmlns="http://www.w3.org/2000/svg" xmlns:xlink="http://www.w3.org/1999/xlink" id="Icons_Atom" overflow="hidden"><circle cx="47.700000" cy="48.000000" r="6.000000" stroke="none" stroke-width="106.168335" stroke-linecap="butt" stroke-opacity="1.000000" fill="#4472C4" fill-opacity="1.000000"/><path d=" M 82.900002 28.000000 C 81.199997 25.100000 77.400002 23.700001 72.199997 23.700001 C 68.900002 23.700001 65.099998 24.299999 60.900002 25.400000 C 58.000000 14.900000 53.200001 8.000000 47.700001 8.000000 C 42.299999 8.000000 37.400002 14.800000 34.599998 25.200001 C 30.600000 24.200001 27.000000 23.600000 23.799999 23.600000 C 18.600000 23.600000 14.800000 25.000000 13.100000 27.900000 C 10.300000 32.700001 14.000000 40.400002 21.700001 48.200001 C 14.300000 55.799999 10.900000 63.200001 13.600000 67.900002 C 15.300000 70.800003 19.100000 72.199997 24.299999 72.199997 C 27.299999 72.199997 30.799999 71.699997 34.599998 70.800003 C 37.500000 81.199997 42.299999 88.000000 47.700001 88.000000 C 53.099998 88.000000 58.000000 81.199997 60.799999 70.800003 C 64.800003 71.800003 68.400002 72.400002 71.599998 72.400002 C 76.800003 72.400002 80.599998 71.000000 82.300003 68.099998 C 85.000000 63.400002 81.599998 56.000000 74.199997 48.400002 C 82.099998 40.500000 85.699997 32.799999 82.900002 28.000000 Z M 72.199997 27.700001 C 75.900002 27.700001 78.599998 28.600000 79.400002 30.000000 C 80.900002 32.599998 78.199997 38.700001 71.400002 45.500000 C 69.000000 43.299999 66.300003 41.099998 63.299999 39.000000 C 63.000000 35.599998 62.500000 32.299999 61.799999 29.200001 C 65.599998 28.200001 69.199997 27.700001 72.199997 27.700001 Z M 54.299999 58.400002 C 52.200001 59.599998 50.099998 60.700001 48.000000 61.700001 C 45.900002 60.700001 43.799999 59.599998 41.700001 58.400002 C 39.700001 57.200001 37.700001 56.000000 35.900002 54.799999 C 35.700001 52.599998 35.700001 50.400002 35.700001 48.000000 C 35.700001 45.799999 35.799999 43.700001 35.900002 41.599998 C 37.900002 40.200001 40.000000 38.900002 42.299999 37.599998 C 44.200001 36.500000 46.099998 35.500000 48.000000 34.599998 C 49.900002 35.500000 51.799999 36.500000 53.700001 37.599998 C 55.700001 38.799999 57.700001 40.000000 59.500000 41.200001 C 59.700001 43.400002 59.700001 45.599998 59.700001 48.000000 C 59.700001 50.500000 59.599998 52.900002 59.400002 55.200001 C 57.799999 56.299999 56.099998 57.299999 54.299999 58.400002 Z M 58.900002 60.299999 C 58.599998 62.200001 58.299999 64.099998 58.000000 65.800003 C 56.299999 65.199997 54.500000 64.599998 52.700001 63.799999 C 53.900002 63.200001 55.099998 62.500000 56.299999 61.799999 C 57.200001 61.299999 58.099998 60.799999 58.900002 60.299999 Z M 43.299999 63.799999 C 41.299999 64.599998 39.400002 65.300003 37.500000 65.900002 C 37.099998 64.000000 36.799999 62.000000 36.500000 59.900002 C 37.599998 60.599998 38.599998 61.200001 39.799999 61.900002 C 40.900002 62.500000 42.099998 63.200001 43.299999 63.799999 Z M 31.799999 51.799999 C 30.200001 50.599998 28.799999 49.400002 27.500000 48.200001 C 28.799999 47.000000 30.299999 45.799999 31.799999 44.599998 C 31.799999 45.700001 31.700001 46.799999 31.700001 48.000000 C 31.700001 49.299999 31.700001 50.599998 31.799999 51.799999 Z M 36.400002 36.500000 C 36.700001 34.299999 37.000000 32.200001 37.400002 30.200001 C 39.299999 30.799999 41.299999 31.600000 43.299999 32.400002 C 42.299999 32.900002 41.200001 33.500000 40.200001 34.099998 C 39.000000 34.900002 37.700001 35.700001 36.400002 36.500000 Z M 52.599998 32.400002 C 54.400002 31.600000 56.200001 31.000000 58.000000 30.400000 C 58.400002 32.200001 58.700001 34.099998 59.000000 36.099998 C 57.900002 35.400002 56.900002 34.799999 55.700001 34.099998 C 54.700001 33.599998 53.700001 33.000000 52.599998 32.400002 Z M 63.599998 44.200001 C 65.400002 45.599998 67.000000 46.900002 68.500000 48.299999 C 67.000000 49.599998 65.400002 51.000000 63.599998 52.299999 C 63.700001 50.900002 63.700001 49.500000 63.700001 48.099998 C 63.700001 46.700001 63.700001 45.400002 63.599998 44.200001 Z M 47.700001 12.000000 C 50.700001 12.000000 54.599998 17.299999 57.099998 26.500000 C 54.200001 27.500000 51.099998 28.700001 48.000000 30.100000 C 44.700001 28.600000 41.500000 27.299999 38.400002 26.299999 C 40.900002 17.200001 44.700001 12.000000 47.700001 12.000000 Z M 16.500000 30.000000 C 17.400000 28.500000 20.000000 27.700001 23.700001 27.700001 C 26.600000 27.700001 29.900000 28.200001 33.500000 29.100000 C 32.799999 32.299999 32.299999 35.799999 32.000000 39.400002 C 29.200001 41.400002 26.700001 43.400002 24.500000 45.500000 C 17.799999 38.700001 15.000000 32.599998 16.500000 30.000000 Z M 24.299999 68.300003 C 20.600000 68.300003 17.900000 67.400002 17.100000 66.000000 C 15.600000 63.400002 18.200001 57.599998 24.600000 51.000000 C 26.900000 53.000000 29.400000 55.000000 32.099998 57.000000 C 32.400002 60.500000 32.900002 63.900002 33.599998 67.000000 C 30.299999 67.900002 27.100000 68.300003 24.299999 68.300003 Z M 47.700001 84.000000 C 44.700001 84.000000 40.900002 78.800003 38.400002 69.800003 C 41.500000 68.800003 44.700001 67.599998 48.000000 66.099998 C 51.099998 67.500000 54.099998 68.699997 57.000000 69.599998 C 54.500000 78.800003 50.700001 84.000000 47.700001 84.000000 Z M 78.900002 66.000000 C 78.000000 67.500000 75.400002 68.300003 71.699997 68.300003 C 68.800003 68.300003 65.400002 67.800003 61.900002 66.900002 C 62.500000 63.900002 63.000000 60.799999 63.299999 57.400002 C 66.300003 55.299999 69.000000 53.200001 71.400002 51.000000 C 77.800003 57.599998 80.400002 63.400002 78.900002 66.000000 Z" stroke="none" stroke-width="106.168335" stroke-linecap="butt" stroke-opacity="1.000000" fill="#4472C4" fill-opacity="1.000000"/></svg>